<svg xmlns="http://www.w3.org/2000/svg" version="1.1" xmlns:xlink="http://www.w3.org/1999/xlink" xmlns:svgjs="http://svgjs.dev/svgjs" viewBox="0 0 800 800" opacity="1"><g stroke="hsl(205, 69%, 50%)" fill="none" stroke-linecap="square"><circle r="400" cx="400" cy="400" stroke-width="13" stroke-dasharray="55 38" stroke-dashoffset="25" transform="rotate(28, 400, 400)" opacity="0.05"></circle><circle r="387.5" cx="400" cy="400" stroke-width="12" stroke-dasharray="37 29" stroke-dashoffset="25" transform="rotate(169, 400, 400)" opacity="0.08"></circle><circle r="375" cx="400" cy="400" stroke-width="12" stroke-dasharray="36 18" stroke-dashoffset="25" transform="rotate(93, 400, 400)" opacity="0.11"></circle><circle r="362.5" cx="400" cy="400" stroke-width="12" stroke-dasharray="51 26" stroke-dashoffset="25" transform="rotate(163, 400, 400)" opacity="0.14"></circle><circle r="350" cx="400" cy="400" stroke-width="12" stroke-dasharray="39 27" stroke-dashoffset="25" transform="rotate(170, 400, 400)" opacity="0.17"></circle><circle r="337.5" cx="400" cy="400" stroke-width="12" stroke-dasharray="26 35" stroke-dashoffset="25" transform="rotate(275, 400, 400)" opacity="0.20"></circle><circle r="325" cx="400" cy="400" stroke-width="11" stroke-dasharray="36 45" stroke-dashoffset="25" transform="rotate(118, 400, 400)" opacity="0.23"></circle><circle r="312.5" cx="400" cy="400" stroke-width="11" stroke-dasharray="21 54" stroke-dashoffset="25" transform="rotate(330, 400, 400)" opacity="0.26"></circle><circle r="300" cx="400" cy="400" stroke-width="11" stroke-dasharray="49 36" stroke-dashoffset="25" transform="rotate(263, 400, 400)" opacity="0.30"></circle><circle r="287.5" cx="400" cy="400" stroke-width="11" stroke-dasharray="20 33" stroke-dashoffset="25" transform="rotate(51, 400, 400)" opacity="0.33"></circle><circle r="275" cx="400" cy="400" stroke-width="11" stroke-dasharray="11 30" stroke-dashoffset="25" transform="rotate(198, 400, 400)" opacity="0.36"></circle><circle r="262.5" cx="400" cy="400" stroke-width="10" stroke-dasharray="30 24" stroke-dashoffset="25" transform="rotate(290, 400, 400)" opacity="0.39"></circle><circle r="250" cx="400" cy="400" stroke-width="10" stroke-dasharray="24 11" stroke-dashoffset="25" transform="rotate(52, 400, 400)" opacity="0.42"></circle><circle r="237.5" cx="400" cy="400" stroke-width="10" stroke-dasharray="24 46" stroke-dashoffset="25" transform="rotate(173, 400, 400)" opacity="0.45"></circle><circle r="225" cx="400" cy="400" stroke-width="10" stroke-dasharray="14 20" stroke-dashoffset="25" transform="rotate(230, 400, 400)" opacity="0.48"></circle><circle r="212.5" cx="400" cy="400" stroke-width="10" stroke-dasharray="19 19" stroke-dashoffset="25" transform="rotate(154, 400, 400)" opacity="0.51"></circle><circle r="200" cx="400" cy="400" stroke-width="9" stroke-dasharray="12 38" stroke-dashoffset="25" transform="rotate(155, 400, 400)" opacity="0.54"></circle><circle r="187.5" cx="400" cy="400" stroke-width="9" stroke-dasharray="33 23" stroke-dashoffset="25" transform="rotate(350, 400, 400)" opacity="0.57"></circle><circle r="175" cx="400" cy="400" stroke-width="9" stroke-dasharray="45 34" stroke-dashoffset="25" transform="rotate(88, 400, 400)" opacity="0.60"></circle><circle r="162.5" cx="400" cy="400" stroke-width="9" stroke-dasharray="39 52" stroke-dashoffset="25" transform="rotate(347, 400, 400)" opacity="0.63"></circle><circle r="150" cx="400" cy="400" stroke-width="9" stroke-dasharray="43 12" stroke-dashoffset="25" transform="rotate(311, 400, 400)" opacity="0.66"></circle><circle r="137.5" cx="400" cy="400" stroke-width="8" stroke-dasharray="46 15" stroke-dashoffset="25" transform="rotate(237, 400, 400)" opacity="0.69"></circle><circle r="125" cx="400" cy="400" stroke-width="8" stroke-dasharray="13 48" stroke-dashoffset="25" transform="rotate(230, 400, 400)" opacity="0.72"></circle><circle r="112.5" cx="400" cy="400" stroke-width="8" stroke-dasharray="33 50" stroke-dashoffset="25" transform="rotate(340, 400, 400)" opacity="0.75"></circle><circle r="100" cx="400" cy="400" stroke-width="8" stroke-dasharray="39 50" stroke-dashoffset="25" transform="rotate(195, 400, 400)" opacity="0.79"></circle><circle r="87.5" cx="400" cy="400" stroke-width="8" stroke-dasharray="11 36" stroke-dashoffset="25" transform="rotate(236, 400, 400)" opacity="0.82"></circle><circle r="75" cx="400" cy="400" stroke-width="7" stroke-dasharray="42 40" stroke-dashoffset="25" transform="rotate(62, 400, 400)" opacity="0.85"></circle><circle r="62.5" cx="400" cy="400" stroke-width="7" stroke-dasharray="28 27" stroke-dashoffset="25" transform="rotate(26, 400, 400)" opacity="0.88"></circle><circle r="50" cx="400" cy="400" stroke-width="7" stroke-dasharray="36 21" stroke-dashoffset="25" transform="rotate(218, 400, 400)" opacity="0.91"></circle><circle r="37.5" cx="400" cy="400" stroke-width="7" stroke-dasharray="18 47" stroke-dashoffset="25" transform="rotate(341, 400, 400)" opacity="0.94"></circle><circle r="25" cx="400" cy="400" stroke-width="7" stroke-dasharray="17 45" stroke-dashoffset="25" transform="rotate(84, 400, 400)" opacity="0.97"></circle><circle r="12.5" cx="400" cy="400" stroke-width="7" stroke-dasharray="34 20" stroke-dashoffset="25" transform="rotate(121, 400, 400)" opacity="1.00"></circle></g></svg>